<svg width="234" height="317" viewBox="0 0 234 317" fill="none" xmlns="http://www.w3.org/2000/svg">
<path fill-rule="evenodd" clip-rule="evenodd" d="M153 3H81V14H67V28H57V100H67V114H81V124H153V114H167V100H178V28L167 28V14H153V3ZM178 126H57V135H39V145.076L5.75496 247H5V249.315L4 252.38L5 252.707V276H57V314H178V274H231V245H220.463L226.466 243.201L196 141.55V135H194.037L193.737 134L190.401 135H178V126ZM195.686 245L192.09 233H186V245H195.686ZM50 247H37.3105L41.8769 233H50V247ZM58 274L58 252L63 252L63 274L58 274ZM173 274L173 252L178 252L178 274L173 274ZM63 252H48V247H63V252ZM188 252H173V247H188V252Z" fill="#FFD700"/>
<path d="M81 3V0.5H78.5V3H81ZM153 3H155.5V0.5H153V3ZM81 14V16.5H83.5V14H81ZM67 14V11.5H64.5V14H67ZM67 28V30.5H69.5V28H67ZM57 28V25.5H54.5V28H57ZM57 100H54.5V102.5H57V100ZM67 100H69.5V97.5H67V100ZM67 114H64.5V116.5H67V114ZM81 114H83.5V111.5H81V114ZM81 124H78.5V126.5H81V124ZM153 124V126.5H155.5V124H153ZM153 114V111.5H150.5V114H153ZM167 114V116.5H169.5V114H167ZM167 100V97.5H164.5V100H167ZM178 100V102.5H180.5V100H178ZM178 28H180.5V25.5L178 25.5L178 28ZM167 28H164.5V30.5L167 30.5L167 28ZM167 14H169.5V11.5H167V14ZM153 14H150.5V16.5H153V14ZM57 126V123.5H54.5V126H57ZM178 126H180.5V123.5H178V126ZM57 135V137.5H59.5V135H57ZM39 135V132.5H36.5V135H39ZM39 145.076L41.3768 145.851L41.5 145.473V145.076H39ZM5.75496 247V249.5H7.56915L8.13172 247.775L5.75496 247ZM5 247V244.5H2.5V247H5ZM5 249.315L7.37676 250.09L7.5 249.712V249.315H5ZM4 252.38L1.62324 251.605L0.847998 253.982L3.22477 254.757L4 252.38ZM5 252.707H7.5V250.892L5.77523 250.33L5 252.707ZM5 276H2.5V278.5H5V276ZM57 276H59.5V273.5H57V276ZM57 314H54.5V316.5H57V314ZM178 314V316.5H180.5V314H178ZM178 274V271.5H175.5V274H178ZM231 274V276.5H233.5V274H231ZM231 245H233.5V242.5H231V245ZM220.463 245L219.745 242.605L220.463 247.5V245ZM226.466 243.201L227.183 245.596L229.578 244.878L228.86 242.483L226.466 243.201ZM196 141.55H193.5V141.917L193.605 142.268L196 141.55ZM196 135H198.5V132.5H196V135ZM194.037 135L191.642 135.718L192.176 137.5H194.037V135ZM193.737 134L196.132 133.282L195.414 130.888L193.019 131.605L193.737 134ZM190.401 135V137.5H190.767L191.118 137.395L190.401 135ZM178 135H175.5V137.5H178V135ZM195.686 245V247.5H199.045L198.081 244.282L195.686 245ZM192.09 233L194.485 232.282L193.95 230.5H192.09V233ZM186 233V230.5H183.5V233H186ZM186 245H183.5V247.5H186V245ZM37.3105 247L34.9337 246.225L33.8654 249.5H37.3105V247ZM50 247V249.5H52.5V247H50ZM41.8769 233V230.5H40.0627L39.5001 232.225L41.8769 233ZM50 233H52.5V230.5H50V233ZM58 252L58 249.5L55.5 249.5L55.5 252L58 252ZM58 274L55.5 274L55.5 276.5L58 276.5L58 274ZM63 252L65.5 252L65.5 249.5L63 249.5L63 252ZM63 274L63 276.5L65.5 276.5L65.5 274L63 274ZM173 252L173 249.5L170.5 249.5L170.5 252L173 252ZM173 274L170.5 274L170.5 276.5L173 276.5L173 274ZM178 252L180.5 252L180.5 249.5L178 249.5L178 252ZM178 274L178 276.5L180.5 276.5L180.5 274L178 274ZM48 252H45.5V254.5H48V252ZM63 252V254.5H65.5V252H63ZM48 247V244.5H45.5V247H48ZM63 247H65.5V244.5H63V247ZM173 252H170.5V254.5H173V252ZM188 252V254.5H190.5V252H188ZM173 247V244.5H170.5V247H173ZM188 247H190.5V244.5H188V247ZM81 5.5H153V0.5H81V5.5ZM83.5 14V3H78.5V14H83.5ZM67 16.5H81V11.5H67V16.5ZM69.5 28V14H64.5V28H69.5ZM57 30.5H67V25.5H57V30.5ZM59.5 100V28H54.5V100H59.5ZM67 97.5H57V102.5H67V97.5ZM69.5 114V100H64.5V114H69.5ZM81 111.5H67V116.5H81V111.5ZM83.5 124V114H78.5V124H83.5ZM153 121.5H81V126.5H153V121.5ZM150.5 114V124H155.5V114H150.5ZM167 111.5H153V116.5H167V111.5ZM164.5 100V114H169.5V100H164.5ZM178 97.5H167V102.5H178V97.5ZM175.5 28V100H180.5V28H175.5ZM167 30.5L178 30.5L178 25.5L167 25.5L167 30.5ZM164.5 14V28H169.5V14H164.5ZM153 16.5H167V11.5H153V16.5ZM150.5 3V14H155.5V3H150.5ZM57 128.5H178V123.5H57V128.5ZM59.5 135V126H54.5V135H59.5ZM39 137.5H57V132.5H39V137.5ZM41.5 145.076V135H36.5V145.076H41.5ZM8.13172 247.775L41.3768 145.851L36.6232 144.3L3.37819 246.225L8.13172 247.775ZM5 249.5H5.75496V244.5H5V249.5ZM7.5 249.315V247H2.5V249.315H7.5ZM6.37676 253.156L7.37676 250.09L2.62324 248.539L1.62324 251.605L6.37676 253.156ZM5.77523 250.33L4.77523 250.004L3.22477 254.757L4.22477 255.083L5.77523 250.33ZM7.5 276V252.707H2.5V276H7.5ZM57 273.5H5V278.5H57V273.5ZM59.5 314V276H54.5V314H59.5ZM178 311.5H57V316.5H178V311.5ZM175.5 274V314H180.5V274H175.5ZM231 271.5H178V276.5H231V271.5ZM228.5 245V274H233.5V245H228.5ZM220.463 247.5H231V242.5H220.463V247.5ZM225.748 240.806L219.745 242.605L221.181 247.395L227.183 245.596L225.748 240.806ZM193.605 142.268L224.071 243.919L228.86 242.483L198.395 140.833L193.605 142.268ZM193.5 135V141.55H198.5V135H193.5ZM194.037 137.5H196V132.5H194.037V137.5ZM191.342 134.718L191.642 135.718L196.432 134.282L196.132 133.282L191.342 134.718ZM191.118 137.395L194.455 136.395L193.019 131.605L189.683 132.605L191.118 137.395ZM178 137.5H190.401V132.5H178V137.5ZM175.5 126V135H180.5V126H175.5ZM198.081 244.282L194.485 232.282L189.695 233.718L193.292 245.718L198.081 244.282ZM192.09 230.5H186V235.5H192.09V230.5ZM183.5 233V245H188.5V233H183.5ZM186 247.5H195.686V242.5H186V247.5ZM37.3105 249.5H50V244.5H37.3105V249.5ZM39.5001 232.225L34.9337 246.225L39.6872 247.775L44.2537 233.775L39.5001 232.225ZM50 230.5H41.8769V235.5H50V230.5ZM52.5 247V233H47.5V247H52.5ZM55.5 252L55.5 274L60.5 274L60.5 252L55.5 252ZM63 249.5L58 249.5L58 254.5L63 254.5L63 249.5ZM65.5 274L65.5 252L60.5 252L60.5 274L65.5 274ZM58 276.5L63 276.5L63 271.5L58 271.5L58 276.5ZM170.5 252L170.5 274L175.5 274L175.5 252L170.5 252ZM178 249.5L173 249.5L173 254.5L178 254.5L178 249.5ZM180.5 274L180.5 252L175.5 252L175.5 274L180.5 274ZM173 276.5L178 276.5L178 271.5L173 271.5L173 276.5ZM48 254.5H63V249.5H48V254.5ZM45.5 247V252H50.5V247H45.5ZM63 244.5H48V249.5H63V244.5ZM65.5 252V247H60.5V252H65.5ZM173 254.5H188V249.5H173V254.5ZM170.5 247V252H175.5V247H170.5ZM188 244.5H173V249.5H188V244.5ZM190.5 252V247H185.5V252H190.5Z" fill="black"/>
</svg>
