<svg width="368" height="311" viewBox="0 0 368 311" fill="none" xmlns="http://www.w3.org/2000/svg">
<mask id="path-1-inside-1_4_249" fill="white">
<path fill-rule="evenodd" clip-rule="evenodd" d="M220 0H148V11H134V25H124V97H134V111H148V121H220V111H234V97H245V25H234V11H220V0ZM245 123H124V132H106V142.076L77.9737 228H0V259H100V257.215L108.877 230H117V246H124V268V311H245V268V246H253V230H259.09L264.728 248.814L267 248.133V254H367V223H288.31L263 138.55V132H261.037L260.737 131L257.401 132H245V123Z"/>
</mask>
<path fill-rule="evenodd" clip-rule="evenodd" d="M220 0H148V11H134V25H124V97H134V111H148V121H220V111H234V97H245V25H234V11H220V0ZM245 123H124V132H106V142.076L77.9737 228H0V259H100V257.215L108.877 230H117V246H124V268V311H245V268V246H253V230H259.09L264.728 248.814L267 248.133V254H367V223H288.31L263 138.55V132H261.037L260.737 131L257.401 132H245V123Z" fill="#FFD700"/>
<path d="M148 0V-5H143V0H148ZM220 0H225V-5H220V0ZM148 11V16H153V11H148ZM134 11V6H129V11H134ZM134 25V30H139V25H134ZM124 25V20H119V25H124ZM124 97H119V102H124V97ZM134 97H139V92H134V97ZM134 111H129V116H134V111ZM148 111H153V106H148V111ZM148 121H143V126H148V121ZM220 121V126H225V121H220ZM220 111V106H215V111H220ZM234 111V116H239V111H234ZM234 97V92H229V97H234ZM245 97V102H250V97H245ZM245 25H250V20H245V25ZM234 25H229V30H234V25ZM234 11H239V6H234V11ZM220 11H215V16H220V11ZM124 123V118H119V123H124ZM245 123H250V118H245V123ZM124 132V137H129V132H124ZM106 132V127H101V132H106ZM106 142.076L110.754 143.626L111 142.87V142.076H106ZM77.9737 228V233H81.6021L82.7273 229.55L77.9737 228ZM0 228V223H-5V228H0ZM0 259H-5V264H0V259ZM100 259V264H105V259H100ZM100 257.215L95.2465 255.665L95 256.42V257.215H100ZM108.877 230V225H105.249L104.123 228.45L108.877 230ZM117 230H122V225H117V230ZM117 246H112V251H117V246ZM124 246H129V241H124V246ZM124 311H119V316H124V311ZM245 311V316H250V311H245ZM245 246V241H240V246H245ZM253 246V251H258V246H253ZM253 230V225H248V230H253ZM259.09 230L263.879 228.565L262.811 225H259.09V230ZM264.728 248.814L259.939 250.249L261.374 255.039L266.164 253.603L264.728 248.814ZM267 248.133H272V241.415L265.565 243.343L267 248.133ZM267 254H262V259H267V254ZM367 254V259H372V254H367ZM367 223H372V218H367V223ZM288.31 223L283.521 224.435L284.589 228H288.31V223ZM263 138.55H258V139.284L258.21 139.986L263 138.55ZM263 132H268V127H263V132ZM261.037 132L256.247 133.435L257.316 137H261.037V132ZM260.737 131L265.527 129.565L264.091 124.775L259.302 126.21L260.737 131ZM257.401 132V137H258.134L258.836 136.79L257.401 132ZM245 132H240V137H245V132ZM148 5H220V-5H148V5ZM153 11V0H143V11H153ZM134 16H148V6H134V16ZM139 25V11H129V25H139ZM124 30H134V20H124V30ZM129 97V25H119V97H129ZM134 92H124V102H134V92ZM139 111V97H129V111H139ZM148 106H134V116H148V106ZM153 121V111H143V121H153ZM220 116H148V126H220V116ZM215 111V121H225V111H215ZM234 106H220V116H234V106ZM229 97V111H239V97H229ZM245 92H234V102H245V92ZM240 25V97H250V25H240ZM234 30H245V20H234V30ZM229 11V25H239V11H229ZM220 16H234V6H220V16ZM215 0V11H225V0H215ZM124 128H245V118H124V128ZM129 132V123H119V132H129ZM106 137H124V127H106V137ZM111 142.076V132H101V142.076H111ZM82.7273 229.55L110.754 143.626L101.246 140.525L73.2202 226.45L82.7273 229.55ZM0 233H77.9737V223H0V233ZM5 259V228H-5V259H5ZM100 254H0V264H100V254ZM95 257.215V259H105V257.215H95ZM104.123 228.45L95.2465 255.665L104.754 258.766L113.63 231.55L104.123 228.45ZM117 225H108.877V235H117V225ZM122 246V230H112V246H122ZM124 241H117V251H124V241ZM129 268V246H119V268H129ZM129 311V268H119V311H129ZM245 306H124V316H245V306ZM240 268V311H250V268H240ZM240 246V268H250V246H240ZM253 241H245V251H253V241ZM248 230V246H258V230H248ZM259.09 225H253V235H259.09V225ZM269.518 247.378L263.879 228.565L254.3 231.435L259.939 250.249L269.518 247.378ZM265.565 243.343L263.293 244.024L266.164 253.603L268.435 252.922L265.565 243.343ZM272 254V248.133H262V254H272ZM367 249H267V259H367V249ZM362 223V254H372V223H362ZM288.31 228H367V218H288.31V228ZM258.21 139.986L283.521 224.435L293.1 221.565L267.79 137.115L258.21 139.986ZM258 132V138.55H268V132H258ZM261.037 137H263V127H261.037V137ZM255.948 132.435L256.247 133.435L265.826 130.565L265.527 129.565L255.948 132.435ZM258.836 136.79L262.173 135.79L259.302 126.21L255.965 127.21L258.836 136.79ZM245 137H257.401V127H245V137ZM240 123V132H250V123H240Z" fill="black" mask="url(#path-1-inside-1_4_249)"/>
<mask id="path-3-inside-2_4_249" fill="white">
<path fill-rule="evenodd" clip-rule="evenodd" d="M355.175 144H324.175V156.176L312 156.315L312.354 187.313L324.175 187.178V199H355.175V186.824L367.351 186.685L366.996 155.687L355.175 155.822V144Z"/>
</mask>
<path fill-rule="evenodd" clip-rule="evenodd" d="M355.175 144H324.175V156.176L312 156.315L312.354 187.313L324.175 187.178V199H355.175V186.824L367.351 186.685L366.996 155.687L355.175 155.822V144Z" fill="#F00808"/>
<path d="M324.175 144V139H319.175V144H324.175ZM355.175 144H360.175V139H355.175V144ZM324.175 156.176L324.232 161.176L329.175 161.119V156.176H324.175ZM312 156.315L311.943 151.316L306.943 151.373L307 156.372L312 156.315ZM312.354 187.313L307.354 187.37L307.412 192.37L312.411 192.313L312.354 187.313ZM324.175 187.178H329.175V182.121L324.118 182.178L324.175 187.178ZM324.175 199H319.175V204H324.175V199ZM355.175 199V204H360.175V199H355.175ZM355.175 186.824L355.118 181.824L350.175 181.881V186.824H355.175ZM367.351 186.685L367.408 191.684L372.407 191.627L372.35 186.628L367.351 186.685ZM366.996 155.687L371.996 155.63L371.939 150.63L366.939 150.687L366.996 155.687ZM355.175 155.822H350.175V160.879L355.232 160.822L355.175 155.822ZM324.175 149H355.175V139H324.175V149ZM329.175 156.176V144H319.175V156.176H329.175ZM312.057 161.315L324.232 161.176L324.118 151.176L311.943 151.316L312.057 161.315ZM317.354 187.256L317 156.258L307 156.372L307.354 187.37L317.354 187.256ZM324.118 182.178L312.297 182.313L312.411 192.313L324.232 192.178L324.118 182.178ZM329.175 199V187.178H319.175V199H329.175ZM355.175 194H324.175V204H355.175V194ZM350.175 186.824V199H360.175V186.824H350.175ZM367.293 181.685L355.118 181.824L355.232 191.824L367.408 191.684L367.293 181.685ZM361.997 155.744L362.351 186.742L372.35 186.628L371.996 155.63L361.997 155.744ZM355.232 160.822L367.054 160.687L366.939 150.687L355.118 150.822L355.232 160.822ZM350.175 144V155.822H360.175V144H350.175Z" fill="black" mask="url(#path-3-inside-2_4_249)"/>
</svg>
