<svg width="367" height="311" viewBox="0 0 367 311" fill="none" xmlns="http://www.w3.org/2000/svg">
<mask id="path-1-inside-1_4_250" fill="white">
<path fill-rule="evenodd" clip-rule="evenodd" d="M220 0H148V11H134V25H124V97H134V111H148V121H220V111H234V97H245V25H234V11H220V0ZM245 123H124V132H106V142.076L77.9737 228H0V259H100V257.215L108.877 230H117V246H124V268V311H245V268V246H253V230H259.09L264.728 248.814L267 248.133V254H367V223H288.31L263 138.55V132H261.037L260.737 131L257.401 132H245V123Z"/>
</mask>
<path fill-rule="evenodd" clip-rule="evenodd" d="M220 0H148V11H134V25H124V97H134V111H148V121H220V111H234V97H245V25H234V11H220V0ZM245 123H124V132H106V142.076L77.9737 228H0V259H100V257.215L108.877 230H117V246H124V268V311H245V268V246H253V230H259.09L264.728 248.814L267 248.133V254H367V223H288.31L263 138.55V132H261.037L260.737 131L257.401 132H245V123Z" fill="#FFD700"/>
<path d="M148 0V-5H143V0H148ZM220 0H225V-5H220V0ZM148 11V16H153V11H148ZM134 11V6H129V11H134ZM134 25V30H139V25H134ZM124 25V20H119V25H124ZM124 97H119V102H124V97ZM134 97H139V92H134V97ZM134 111H129V116H134V111ZM148 111H153V106H148V111ZM148 121H143V126H148V121ZM220 121V126H225V121H220ZM220 111V106H215V111H220ZM234 111V116H239V111H234ZM234 97V92H229V97H234ZM245 97V102H250V97H245ZM245 25H250V20H245V25ZM234 25H229V30H234V25ZM234 11H239V6H234V11ZM220 11H215V16H220V11ZM124 123V118H119V123H124ZM245 123H250V118H245V123ZM124 132V137H129V132H124ZM106 132V127H101V132H106ZM106 142.076L110.754 143.626L111 142.87V142.076H106ZM77.9737 228V233H81.6021L82.7273 229.55L77.9737 228ZM0 228V223H-5V228H0ZM0 259H-5V264H0V259ZM100 259V264H105V259H100ZM100 257.215L95.2465 255.665L95 256.42V257.215H100ZM108.877 230V225H105.249L104.123 228.45L108.877 230ZM117 230H122V225H117V230ZM117 246H112V251H117V246ZM124 246H129V241H124V246ZM124 311H119V316H124V311ZM245 311V316H250V311H245ZM245 246V241H240V246H245ZM253 246V251H258V246H253ZM253 230V225H248V230H253ZM259.09 230L263.879 228.565L262.811 225H259.09V230ZM264.728 248.814L259.939 250.249L261.374 255.039L266.164 253.603L264.728 248.814ZM267 248.133H272V241.415L265.565 243.343L267 248.133ZM267 254H262V259H267V254ZM367 254V259H372V254H367ZM367 223H372V218H367V223ZM288.31 223L283.521 224.435L284.589 228H288.31V223ZM263 138.55H258V139.284L258.21 139.986L263 138.55ZM263 132H268V127H263V132ZM261.037 132L256.247 133.435L257.316 137H261.037V132ZM260.737 131L265.527 129.565L264.091 124.775L259.302 126.21L260.737 131ZM257.401 132V137H258.134L258.836 136.79L257.401 132ZM245 132H240V137H245V132ZM148 5H220V-5H148V5ZM153 11V0H143V11H153ZM134 16H148V6H134V16ZM139 25V11H129V25H139ZM124 30H134V20H124V30ZM129 97V25H119V97H129ZM134 92H124V102H134V92ZM139 111V97H129V111H139ZM148 106H134V116H148V106ZM153 121V111H143V121H153ZM220 116H148V126H220V116ZM215 111V121H225V111H215ZM234 106H220V116H234V106ZM229 97V111H239V97H229ZM245 92H234V102H245V92ZM240 25V97H250V25H240ZM234 30H245V20H234V30ZM229 11V25H239V11H229ZM220 16H234V6H220V16ZM215 0V11H225V0H215ZM124 128H245V118H124V128ZM129 132V123H119V132H129ZM106 137H124V127H106V137ZM111 142.076V132H101V142.076H111ZM82.7273 229.55L110.754 143.626L101.246 140.525L73.2202 226.45L82.7273 229.55ZM0 233H77.9737V223H0V233ZM5 259V228H-5V259H5ZM100 254H0V264H100V254ZM95 257.215V259H105V257.215H95ZM104.123 228.45L95.2465 255.665L104.754 258.766L113.63 231.55L104.123 228.45ZM117 225H108.877V235H117V225ZM122 246V230H112V246H122ZM124 241H117V251H124V241ZM129 268V246H119V268H129ZM129 311V268H119V311H129ZM245 306H124V316H245V306ZM240 268V311H250V268H240ZM240 246V268H250V246H240ZM253 241H245V251H253V241ZM248 230V246H258V230H248ZM259.09 225H253V235H259.09V225ZM269.518 247.378L263.879 228.565L254.3 231.435L259.939 250.249L269.518 247.378ZM265.565 243.343L263.293 244.024L266.164 253.603L268.435 252.922L265.565 243.343ZM272 254V248.133H262V254H272ZM367 249H267V259H367V249ZM362 223V254H372V223H362ZM288.31 228H367V218H288.31V228ZM258.21 139.986L283.521 224.435L293.1 221.565L267.79 137.115L258.21 139.986ZM258 132V138.55H268V132H258ZM261.037 137H263V127H261.037V137ZM255.948 132.435L256.247 133.435L265.826 130.565L265.527 129.565L255.948 132.435ZM258.836 136.79L262.173 135.79L259.302 126.21L255.965 127.21L258.836 136.79ZM245 137H257.401V127H245V137ZM240 123V132H250V123H240Z" fill="black" mask="url(#path-1-inside-1_4_250)"/>
<mask id="path-3-inside-2_4_250" fill="white">
<path fill-rule="evenodd" clip-rule="evenodd" d="M43.1753 156H12.1753V168.176L0 168.315L0.354156 199.313L12.1753 199.178V211H43.1753V198.824L55.3506 198.685L54.9964 167.687L43.1753 167.822V156Z"/>
</mask>
<path fill-rule="evenodd" clip-rule="evenodd" d="M43.1753 156H12.1753V168.176L0 168.315L0.354156 199.313L12.1753 199.178V211H43.1753V198.824L55.3506 198.685L54.9964 167.687L43.1753 167.822V156Z" fill="#F00808"/>
<path d="M12.1753 156V151H7.17529V156H12.1753ZM43.1753 156H48.1753V151H43.1753V156ZM12.1753 168.176L12.2324 173.176L17.1753 173.119V168.176H12.1753ZM0 168.315L-0.0571222 163.316L-5.0568 163.373L-4.99967 168.372L0 168.315ZM0.354156 199.313L-4.64552 199.37L-4.5884 204.37L0.411279 204.313L0.354156 199.313ZM12.1753 199.178H17.1753V194.121L12.1182 194.178L12.1753 199.178ZM12.1753 211H7.17529V216H12.1753V211ZM43.1753 211V216H48.1753V211H43.1753ZM43.1753 198.824L43.1182 193.824L38.1753 193.881V198.824H43.1753ZM55.3506 198.685L55.4077 203.684L60.4074 203.627L60.3502 198.628L55.3506 198.685ZM54.9964 167.687L59.9961 167.63L59.939 162.63L54.9393 162.687L54.9964 167.687ZM43.1753 167.822H38.1753V172.879L43.2324 172.822L43.1753 167.822ZM12.1753 161H43.1753V151H12.1753V161ZM17.1753 168.176V156H7.17529V168.176H17.1753ZM0.0571222 173.315L12.2324 173.176L12.1182 163.176L-0.0571222 163.316L0.0571222 173.315ZM5.35383 199.256L4.99967 168.258L-4.99967 168.372L-4.64552 199.37L5.35383 199.256ZM12.1182 194.178L0.297034 194.313L0.411279 204.313L12.2324 204.178L12.1182 194.178ZM17.1753 211V199.178H7.17529V211H17.1753ZM43.1753 206H12.1753V216H43.1753V206ZM38.1753 198.824V211H48.1753V198.824H38.1753ZM55.2934 193.685L43.1182 193.824L43.2324 203.824L55.4077 203.684L55.2934 193.685ZM49.9967 167.744L50.3509 198.742L60.3502 198.628L59.9961 167.63L49.9967 167.744ZM43.2324 172.822L55.0535 172.687L54.9393 162.687L43.1182 162.822L43.2324 172.822ZM38.1753 156V167.822H48.1753V156H38.1753Z" fill="black" mask="url(#path-3-inside-2_4_250)"/>
</svg>
